<svg id="Ebene_1" data-name="Ebene 1" xmlns="http://www.w3.org/2000/svg" viewBox="0 0 632.43 106.11"><defs><style>.cls-1{fill:#fff;}.cls-2{fill:#f18e1c;}</style></defs><title>SoftBricks_Logo_3_Pfade_weiß_1</title><path class="cls-1" d="M263.79,289.56a21.32,21.32,0,0,0,9,7.77A26.89,26.89,0,0,0,284,299.82a22.74,22.74,0,0,0,6.61-1,20.08,20.08,0,0,0,6.15-3,16.61,16.61,0,0,0,4.52-5,13.27,13.27,0,0,0,1.75-6.89c0-3.68-1.17-6.5-3.51-8.43a30.09,30.09,0,0,0-8.7-4.86q-5.21-2-11.34-3.78a46.15,46.15,0,0,1-11.34-5.07,27.71,27.71,0,0,1-8.71-8.7Q256,247.58,256,238.26a25.45,25.45,0,0,1,7.56-17.55,31.52,31.52,0,0,1,10.06-6.54,37.3,37.3,0,0,1,14.78-2.64,51.88,51.88,0,0,1,15,2.16,25.83,25.83,0,0,1,12.56,8.78l-10.53,9.58a17.56,17.56,0,0,0-6.89-6.07,21.77,21.77,0,0,0-10.12-2.3,24.65,24.65,0,0,0-9,1.42,16.11,16.11,0,0,0-5.74,3.65,12.75,12.75,0,0,0-3,4.79,14.58,14.58,0,0,0-.88,4.72q0,6.08,3.51,9.32a27.21,27.21,0,0,0,8.71,5.26,104.37,104.37,0,0,0,11.34,3.65A48.92,48.92,0,0,1,304.63,261a26.49,26.49,0,0,1,8.7,7.83q3.51,4.94,3.51,13.57a28.49,28.49,0,0,1-2.63,12.42,27.39,27.39,0,0,1-7.09,9.31A31.28,31.28,0,0,1,296.59,310a40.72,40.72,0,0,1-13,2,47.11,47.11,0,0,1-17.41-3.24,28.58,28.58,0,0,1-13.1-10Z" transform="translate(-142.45 -205.86)"/><path class="cls-1" d="M320.35,277.55a32.52,32.52,0,0,1,2.64-13.1,34,34,0,0,1,7.22-10.66,34.38,34.38,0,0,1,48.33,0,34,34,0,0,1,7.22,10.66,32.51,32.51,0,0,1,2.63,13.1,33.29,33.29,0,0,1-9.85,23.83,34.26,34.26,0,0,1-10.8,7.15,35.15,35.15,0,0,1-26.73,0,34.26,34.26,0,0,1-10.8-7.15,33.36,33.36,0,0,1-9.86-23.83Zm13,0a26.31,26.31,0,0,0,1.49,9,20.33,20.33,0,0,0,4.18,7,19.53,19.53,0,0,0,6.62,4.59,23.76,23.76,0,0,0,17.55,0,19.49,19.49,0,0,0,6.61-4.59,20.35,20.35,0,0,0,4.19-7,28,28,0,0,0,0-18,20.35,20.35,0,0,0-4.19-7,19.49,19.49,0,0,0-6.61-4.59,23.63,23.63,0,0,0-17.55,0,19.53,19.53,0,0,0-6.62,4.59,20.33,20.33,0,0,0-4.18,7A26.31,26.31,0,0,0,333.31,277.55Z" transform="translate(-142.45 -205.86)"/><path class="cls-1" d="M399,256.08H385.18V245.55H399V231.24q0-12.81,4.93-19.1t16.94-6.28c1.35,0,2.77,0,4.25.14a24.73,24.73,0,0,1,4.79.81l-1.35,10.8a18.12,18.12,0,0,0-3.37-1,22.54,22.54,0,0,0-3.51-.27,12.08,12.08,0,0,0-5.4,1,7.54,7.54,0,0,0-3.17,2.9,11.28,11.28,0,0,0-1.49,4.52,48.71,48.71,0,0,0-.34,6v14.71h14.45v10.53H411.1v53.46H399Z" transform="translate(-142.45 -205.86)"/><path class="cls-1" d="M468.58,256.08H451.17v29c0,1.8,0,3.58.13,5.33a14.15,14.15,0,0,0,1,4.73,7.72,7.72,0,0,0,2.7,3.37,9.21,9.21,0,0,0,5.34,1.28,25.55,25.55,0,0,0,4.45-.4,12.76,12.76,0,0,0,4.19-1.49V309a15.83,15.83,0,0,1-5.61,1.69,41.3,41.3,0,0,1-5.33.48q-7,0-10.87-2a13.39,13.39,0,0,1-5.67-5.07,16.44,16.44,0,0,1-2.16-6.95q-.33-3.84-.33-7.76V256.08H425V245.55h14v-18h12.15v18h17.41Z" transform="translate(-142.45 -205.86)"/><path class="cls-1" d="M475.72,214h33.21a42.84,42.84,0,0,1,11.54,1.49,27,27,0,0,1,9.18,4.39,20.46,20.46,0,0,1,6.08,7.42,23.81,23.81,0,0,1,2.23,10.6q0,8.23-4.59,13.43a26.73,26.73,0,0,1-11.88,7.63v.27a20.08,20.08,0,0,1,8.1,2.23,21.83,21.83,0,0,1,6.54,5.13,24.5,24.5,0,0,1,4.39,7.35,24.91,24.91,0,0,1,1.62,9.05,23.93,23.93,0,0,1-2.63,11.41,24.66,24.66,0,0,1-7.22,8.3,33.56,33.56,0,0,1-10.67,5.13,47,47,0,0,1-13.09,1.75H475.72Zm13,39.69h17.69a30.43,30.43,0,0,0,6.88-.74,15.38,15.38,0,0,0,5.67-2.5,12.64,12.64,0,0,0,3.85-4.45,14.15,14.15,0,0,0,1.42-6.62,14.52,14.52,0,0,0-3.65-9.85q-3.64-4.19-11.47-4.19H488.68Zm0,44.55h19a39.71,39.71,0,0,0,6.54-.6,19.77,19.77,0,0,0,6.69-2.43,16.68,16.68,0,0,0,5.26-4.93,14.15,14.15,0,0,0,2.16-8.24q0-8.5-5.53-12.75t-15-4.26H488.68Z" transform="translate(-142.45 -205.86)"/><path class="cls-1" d="M549.31,245.55h12.15v9.86h.27a17.43,17.43,0,0,1,3.24-4.66,22.34,22.34,0,0,1,4.52-3.58,24.68,24.68,0,0,1,5.47-2.36,21.05,21.05,0,0,1,5.94-.88,17,17,0,0,1,5.4.81l-.54,13.1c-1-.27-2-.49-3-.68a17.54,17.54,0,0,0-3-.27q-8.91,0-13.64,5t-4.72,15.52v32.13H549.31Z" transform="translate(-142.45 -205.86)"/><path class="cls-1" d="M587.05,222.6a9,9,0,1,1,2.64,6.28A8.53,8.53,0,0,1,587.05,222.6Zm2.84,23H602v64H589.89Z" transform="translate(-142.45 -205.86)"/><path class="cls-1" d="M657.43,262.56a25.72,25.72,0,0,0-7.09-5.33,20,20,0,0,0-8.84-1.82,19.64,19.64,0,0,0-8.71,1.82,17.75,17.75,0,0,0-6.21,5,22.36,22.36,0,0,0-3.78,7.29,28.46,28.46,0,0,0-1.28,8.57,24,24,0,0,0,1.48,8.44,21.31,21.31,0,0,0,4.19,7,19.33,19.33,0,0,0,6.48,4.66,20.7,20.7,0,0,0,8.5,1.68A19.4,19.4,0,0,0,651,298a22.39,22.39,0,0,0,6.75-5.33l8.64,8.64a27.22,27.22,0,0,1-11,7.56,38.46,38.46,0,0,1-13.3,2.3,36.61,36.61,0,0,1-13.57-2.44,31.36,31.36,0,0,1-10.6-6.81A30.21,30.21,0,0,1,611,291.39a36.61,36.61,0,0,1-2.43-13.57A37.17,37.17,0,0,1,611,264.18a31.2,31.2,0,0,1,6.82-10.66,30.76,30.76,0,0,1,10.53-7,36,36,0,0,1,13.7-2.5,36.55,36.55,0,0,1,13.43,2.5,29.51,29.51,0,0,1,11.14,7.62Z" transform="translate(-142.45 -205.86)"/><path class="cls-1" d="M668.57,207.48h12.15v65.88l27.54-27.67h16.87l-29.83,29,32.4,34.83H710.42l-29.7-33.21v33.21H668.57Z" transform="translate(-142.45 -205.86)"/><path class="cls-1" d="M763.67,261.62a18.59,18.59,0,0,0-5.33-4.52,15.31,15.31,0,0,0-7.76-1.83,14.78,14.78,0,0,0-7.5,1.83,5.81,5.81,0,0,0-3.17,5.33,6.07,6.07,0,0,0,1.83,4.59,14.15,14.15,0,0,0,4.31,2.83,24.36,24.36,0,0,0,5.34,1.62l4.86.95a58.22,58.22,0,0,1,7.36,2.29,20.73,20.73,0,0,1,5.93,3.51,15.22,15.22,0,0,1,3.92,5.27,18.06,18.06,0,0,1,1.42,7.56,17.76,17.76,0,0,1-2.3,9.25,19.27,19.27,0,0,1-5.94,6.27,24.74,24.74,0,0,1-8.3,3.51,41.36,41.36,0,0,1-9.38,1.09,37,37,0,0,1-14-2.44,25.12,25.12,0,0,1-10.74-8.91l9.18-7.56a37.4,37.4,0,0,0,6.62,5.27,16.4,16.4,0,0,0,8.91,2.29,23.39,23.39,0,0,0,4.66-.47,14.44,14.44,0,0,0,4.18-1.48,9.18,9.18,0,0,0,3-2.57,5.89,5.89,0,0,0,1.15-3.58,6.19,6.19,0,0,0-1.69-4.45,12.41,12.41,0,0,0-4.05-2.77,30.66,30.66,0,0,0-5-1.62c-1.76-.4-3.31-.74-4.66-1q-3.91-.94-7.43-2.16a22.57,22.57,0,0,1-6.21-3.24,15,15,0,0,1-4.32-5.13,16.5,16.5,0,0,1-1.62-7.7,17.48,17.48,0,0,1,2.09-8.7,18.7,18.7,0,0,1,5.54-6.15,25,25,0,0,1,7.83-3.64,33,33,0,0,1,8.84-1.22,32.49,32.49,0,0,1,12.42,2.43,19.67,19.67,0,0,1,9.45,8.1Z" transform="translate(-142.45 -205.86)"/><rect class="cls-2" y="74.4" width="30.91" height="30.91"/><rect class="cls-2" x="35.56" y="74.4" width="30.91" height="30.91"/><rect class="cls-2" x="71.13" y="74.4" width="30.91" height="30.91"/><rect class="cls-2" x="71.13" y="39.68" width="30.91" height="30.91"/><rect class="cls-2" x="71.13" y="4.96" width="30.91" height="30.91"/><rect class="cls-2" x="35.56" y="39.68" width="30.91" height="30.91"/></svg>