<svg id="Ebene_1" data-name="Ebene 1" xmlns="http://www.w3.org/2000/svg" viewBox="0 0 533.16 105.44"><defs><style>.cls-1{fill:#fff;}.cls-2{fill:#f18e1c;}</style></defs><title>SoftBricks_Logo_1_weiß_Pfade</title><path class="cls-1" d="M269.85,294.28a32.57,32.57,0,0,0,18.72,6.34c10.68,0,16.92-6.77,16.92-16.56,0-9.07-4.32-14.26-15.24-19.3-13.2-5.61-21.36-13.82-21.36-27.5,0-15.12,10.44-26.35,26.16-26.35,8.28,0,14.28,2.3,17.88,4.75l-2.88,10.22a28.16,28.16,0,0,0-15.36-4.61c-11,0-15.24,7.92-15.24,14.55,0,9.07,4.92,13.53,16.08,18.72,13.68,6.33,20.64,14.25,20.64,28.51,0,15-9.24,28.08-28.32,28.08-7.8,0-16.32-2.88-20.64-6.34Z" transform="translate(-155.95 -205.72)"/><path class="cls-1" d="M375.94,274.12c0,25.78-14.88,37-28.92,37-15.72,0-27.84-13.83-27.84-35.86,0-23.32,12.72-37,28.8-37C364.66,238.27,375.94,252.81,375.94,274.12Zm-46.08.72c0,15.26,7.32,26.78,17.64,26.78,10.08,0,17.64-11.37,17.64-27.07,0-11.8-4.92-26.78-17.4-26.78S329.86,261.59,329.86,274.84Z" transform="translate(-155.95 -205.72)"/><path class="cls-1" d="M383,309.54v-60H374.8v-9.65H383v-3.31c0-9.79,1.8-18.72,6.72-24.34a18.43,18.43,0,0,1,14.16-6.48,20.94,20.94,0,0,1,9,2l-1.44,9.79a13.61,13.61,0,0,0-6.72-1.58c-9,0-11.28,9.5-11.28,20.16v3.74h14v9.65h-14v60Z" transform="translate(-155.95 -205.72)"/><path class="cls-1" d="M426.79,223.15v16.7h15.12v9.65H426.79v37.58c0,8.64,2,13.54,7.92,13.54a16.54,16.54,0,0,0,6.12-.87l.48,9.51a21.83,21.83,0,0,1-9.36,1.87,13.61,13.61,0,0,1-11.4-5.47c-3-3.75-4.08-9.94-4.08-18.15v-38h-9v-9.65h9V227Z" transform="translate(-155.95 -205.72)"/><path class="cls-1" d="M446.05,213.79a84.35,84.35,0,0,1,19.08-2c10.44,0,17.16,2.16,22.2,7.06,4.2,3.74,6.72,9.5,6.72,17.13a22.86,22.86,0,0,1-13.68,21.31v.29c7.68,2.31,16.68,9.94,16.68,24.34a28.89,28.89,0,0,1-6.84,19.44c-5.64,6.19-14.76,9.07-28,9.07a102.81,102.81,0,0,1-16.2-1.15Zm10.44,39.74H466c11,0,17.52-6.91,17.52-16.27,0-11.38-7.2-15.84-17.76-15.84a37.71,37.71,0,0,0-9.24.86Zm0,46.51a46.73,46.73,0,0,0,8.76.58c10.8,0,20.76-4.76,20.76-18.87,0-13.24-9.48-18.72-20.88-18.72h-8.64Z" transform="translate(-155.95 -205.72)"/><path class="cls-1" d="M503.6,261.59c0-8.2-.12-15.26-.48-21.74h9.24l.36,13.68h.48c2.64-9.36,9-15.26,16.08-15.26a9.57,9.57,0,0,1,3,.43v12a13.25,13.25,0,0,0-3.6-.43c-7.44,0-12.72,6.77-14.16,16.27a42.55,42.55,0,0,0-.48,5.9v37.15H503.6Z" transform="translate(-155.95 -205.72)"/><path class="cls-1" d="M547.54,220.27c.11,4.32-2.53,7.77-6.72,7.77-3.72,0-6.36-3.45-6.36-7.77,0-4.47,2.75-7.92,6.59-7.92S547.54,215.8,547.54,220.27Zm-11.76,89.27V239.85h10.55v69.69Z" transform="translate(-155.95 -205.72)"/><path class="cls-1" d="M597.87,307a33.25,33.25,0,0,1-16.68,4.18c-17.52,0-28.92-14.4-28.92-35.71,0-21.46,12.24-37,31.2-37a30.39,30.39,0,0,1,14.64,3.6l-2.4,9.79c-2.52-1.73-6.48-3.31-12.24-3.31-13.32,0-20.52,11.81-20.52,26.35,0,16.13,8.64,26.07,20.16,26.07a26,26,0,0,0,13-3.46Z" transform="translate(-155.95 -205.72)"/><path class="cls-1" d="M612.74,271.82H613c1.44-2.45,3.48-5.47,5.16-7.92l17-24H647.9l-22.44,28.66,25.56,41H638.18l-20-33.4-5.4,7.2v26.2H602.3V207.31h10.44Z" transform="translate(-155.95 -205.72)"/><path class="cls-1" d="M653.71,296.58a24.52,24.52,0,0,0,13.92,5c7.68,0,11.28-4.6,11.28-10.36,0-6.05-3-9.36-10.8-12.82-10.44-4.46-15.36-11.37-15.36-19.73,0-11.23,7.56-20.44,20-20.44a25.28,25.28,0,0,1,14.28,4.32l-2.64,9.21a20,20,0,0,0-11.88-4c-6.24,0-9.72,4.32-9.72,9.5,0,5.76,3.48,8.36,11,11.81,10.08,4.61,15.24,10.66,15.24,21,0,12.24-7.92,21-21.72,21a28.89,28.89,0,0,1-16.32-4.9Z" transform="translate(-155.95 -205.72)"/><rect class="cls-2" y="74.54" width="30.91" height="30.91"/><rect class="cls-2" x="35.56" y="74.54" width="30.91" height="30.91"/><rect class="cls-2" x="71.13" y="74.54" width="30.91" height="30.91"/><rect class="cls-2" x="71.13" y="39.82" width="30.91" height="30.91"/><rect class="cls-2" x="71.13" y="5.11" width="30.91" height="30.91"/><rect class="cls-2" x="35.56" y="39.82" width="30.91" height="30.91"/></svg>